<svg width="12" height="12" viewBox="0 0 12 12" fill="none" xmlns="http://www.w3.org/2000/svg">
<path fill-rule="evenodd" clip-rule="evenodd" d="M8.57753 0.518409C8.55079 0.319763 8.38182 0.166656 8.17737 0.166656C7.95433 0.166656 7.77353 0.348866 7.77353 0.573633V1.02359H4.2314V0.573633L4.22772 0.518409C4.20097 0.319763 4.03201 0.166656 3.82756 0.166656C3.60452 0.166656 3.42371 0.348866 3.42371 0.573633V1.03369C1.76881 1.14767 0.75 2.21995 0.75 3.95003V8.86069C0.75 10.7175 1.89236 11.8333 3.72282 11.8333H8.27713C10.1098 11.8333 11.25 10.7362 11.25 8.90174V3.95003C11.2552 2.21933 10.2397 1.14736 8.58122 1.03364V0.573633L8.57753 0.518409ZM7.77353 1.83754V2.35933L7.77721 2.41455C7.80396 2.6132 7.97292 2.7663 8.17737 2.7663C8.40041 2.7663 8.58122 2.58409 8.58122 2.35933V1.84957C9.78788 1.94996 10.4462 2.67659 10.4423 3.94879V4.18447H1.5577V3.95003C1.5577 2.67865 2.21957 1.95049 3.42371 1.84965V2.35933L3.4274 2.41455C3.45414 2.6132 3.62311 2.7663 3.82756 2.7663C4.05059 2.7663 4.2314 2.58409 4.2314 2.35933V1.83754H7.77353ZM1.5577 4.99842V8.86069C1.5577 10.2622 2.3329 11.0194 3.72283 11.0194H8.27714C9.67184 11.0194 10.4423 10.2781 10.4423 8.90174L10.4423 4.99842H1.5577ZM8.80069 6.71068C8.80069 6.48591 8.61988 6.3037 8.39684 6.3037L8.33706 6.30741C8.13994 6.33436 7.98801 6.50464 7.98801 6.71068C7.98801 6.93544 8.16882 7.11765 8.39684 7.11765L8.45164 7.11394C8.64876 7.08699 8.80069 6.91671 8.80069 6.71068ZM6.00746 6.3037C6.2305 6.3037 6.41131 6.48591 6.41131 6.71068C6.41131 6.91671 6.25938 7.08699 6.06226 7.11394L6.00746 7.11765C5.77944 7.11765 5.59863 6.93544 5.59863 6.71068C5.59863 6.50464 5.75056 6.33436 5.94768 6.30741L6.00746 6.3037ZM4.01691 6.71068C4.01691 6.48591 3.83611 6.3037 3.61307 6.3037L3.55328 6.30741C3.35616 6.33436 3.20424 6.50464 3.20424 6.71068C3.20424 6.93544 3.38504 7.11765 3.60808 7.11765L3.66787 7.11394C3.86498 7.08699 4.01691 6.91671 4.01691 6.71068ZM8.39684 8.41266C8.61988 8.41266 8.80069 8.59487 8.80069 8.81964C8.80069 9.02568 8.64876 9.19595 8.45164 9.2229L8.39684 9.22662C8.16882 9.22662 7.98801 9.04441 7.98801 8.81964C7.98801 8.6136 8.13994 8.44333 8.33706 8.41638L8.39684 8.41266ZM6.41131 8.81964C6.41131 8.59487 6.2305 8.41266 6.00746 8.41266L5.94768 8.41638C5.75056 8.44333 5.59863 8.6136 5.59863 8.81964C5.59863 9.04441 5.77944 9.22662 6.00746 9.22662L6.06226 9.2229C6.25938 9.19595 6.41131 9.02568 6.41131 8.81964ZM3.61307 8.41266C3.83611 8.41266 4.01691 8.59487 4.01691 8.81964C4.01691 9.02568 3.86498 9.19595 3.66787 9.2229L3.60808 9.22662C3.38504 9.22662 3.20424 9.04441 3.20424 8.81964C3.20424 8.6136 3.35616 8.44333 3.55328 8.41638L3.61307 8.41266Z" fill="#2C665D"/>
</svg>
