<svg width="48" height="50" viewBox="0 0 48 50" fill="none" xmlns="http://www.w3.org/2000/svg">
<circle cx="24" cy="26" r="24" fill="#F5F5F5"/>
<circle cx="36.5" cy="7.5" r="6.5" fill="#FF0000" stroke="white" stroke-width="2"/>
<path fill-rule="evenodd" clip-rule="evenodd" d="M24.0381 15.4545H23.9629C20.41 15.4545 17.1524 18.0324 16.8363 21.4454C16.8152 21.6895 16.8009 21.939 16.7916 22.2077L16.7786 22.8361L16.776 23.3994L16.7919 23.3352C16.6453 24.0502 16.3074 24.7134 15.8131 25.2552L15.7423 25.3464C15.319 25.9893 15.0759 26.7334 15.0382 27.5018L15.0373 27.7531C15.0157 28.7637 15.362 29.7638 16.0135 30.5581C16.8971 31.4909 18.0407 32.0474 19.2682 32.1655C22.4076 32.5064 25.5839 32.5064 28.7321 32.1646C29.9512 32.0524 31.0983 31.4942 31.9448 30.5959C32.5839 29.8313 32.9327 28.9137 32.9626 27.9636L32.9637 27.5383C32.9287 26.7361 32.684 25.9912 32.2557 25.3511L32.1906 25.2676L32.0317 25.0806C31.6745 24.6346 31.4138 24.1208 31.2654 23.5712L31.2184 23.3739L31.2087 23.167C31.2058 23.0739 31.2043 22.9707 31.2038 22.8418L31.2037 22.132C31.2013 21.8604 31.1932 21.6674 31.1745 21.45C30.8477 18.0306 27.5891 15.4545 24.0381 15.4545ZM23.9629 16.926H24.0381C26.8827 16.926 29.4777 18.9775 29.727 21.5849C29.7417 21.7561 29.7483 21.9194 29.7503 22.162L29.7531 23.1159C29.7563 23.2685 29.7623 23.3954 29.7725 23.5382L29.7861 23.6359L29.8545 23.9267C30.0573 24.696 30.4215 25.4138 30.9228 26.0325L31.0682 26.203L31.0521 26.1763C31.3302 26.5919 31.4886 27.0741 31.5108 27.5714L31.51 27.7438C31.5268 28.4356 31.2974 29.093 30.8634 29.6136C30.2899 30.2202 29.47 30.6191 28.5887 30.7003C25.532 31.0322 22.4596 31.0322 19.4145 30.7015C18.5236 30.6157 17.7031 30.2166 17.0966 29.5781C16.7035 29.0957 16.4766 28.4405 16.4908 27.7689L16.491 27.5383L16.5094 27.3374C16.5538 27.0013 16.6661 26.6607 16.8401 26.347L16.9284 26.2009C17.5755 25.4731 18.0196 24.5881 18.2152 23.6343L18.2304 23.4847L18.2373 22.5153L18.2542 22.0235C18.2619 21.8684 18.2717 21.7209 18.284 21.578C18.5249 18.9776 21.1174 16.926 23.9629 16.926ZM16.9284 26.2009C16.9127 26.2185 16.897 26.236 16.8811 26.2535L16.933 26.1932L16.9284 26.2009ZM26.7502 34.1101C26.4375 33.8554 25.9799 33.9056 25.7283 34.2221C25.6193 34.3594 25.493 34.4825 25.3525 34.5885C24.8761 34.9622 24.2815 35.1286 23.6904 35.0581C23.1002 34.9878 22.5636 34.6874 22.1996 34.2249C21.9495 33.9071 21.4922 33.8547 21.1782 34.1079C20.8643 34.3611 20.8125 34.824 21.0627 35.1418C21.6663 35.9087 22.5508 36.404 23.5205 36.5195C24.4893 36.6349 25.4649 36.3619 26.2322 35.7598C26.46 35.5881 26.6749 35.3786 26.8609 35.1445C27.1125 34.8279 27.063 34.3648 26.7502 34.1101Z" fill="#A6ABB2"/>
</svg>
