<svg width="12" height="12" viewBox="0 0 12 12" fill="none" xmlns="http://www.w3.org/2000/svg">
<path fill-rule="evenodd" clip-rule="evenodd" d="M5.77339 0.166656C2.67688 0.166656 0.166656 2.62144 0.166656 5.64956C0.166656 8.67768 2.67688 11.1325 5.77339 11.1325C7.09776 11.1325 8.31489 10.6834 9.27425 9.93253L11.0966 11.71L11.1451 11.7509C11.3143 11.8733 11.5542 11.8594 11.7073 11.7093C11.8757 11.5441 11.8753 11.2768 11.7065 11.1121L9.90552 9.35549C10.8212 8.37961 11.3801 7.07841 11.3801 5.64956C11.3801 2.62144 8.8699 0.166656 5.77339 0.166656ZM5.77338 1.01117C8.39295 1.01117 10.5165 3.08784 10.5165 5.64956C10.5165 8.21127 8.39295 10.2879 5.77338 10.2879C3.15382 10.2879 1.03024 8.21127 1.03024 5.64956C1.03024 3.08784 3.15382 1.01117 5.77338 1.01117Z" fill="#A6ABB2"/>
</svg>
